<?xml version="1.0" encoding="UTF-8"?><svg id="a" xmlns="http://www.w3.org/2000/svg" viewBox="0 0 3443.04 390.89"><defs><style>.cls-1{fill:#0b2040;}</style></defs><g id="b"><path class="cls-1" d="m1695.05,113.05v-.11c.83-.76,1.31-1.84,1.31-2.97,0-3.43-2.62-5.13-7.82-5.13h-5.02v17.05h3.54v-6.51h1.52l3.93,6.51h4.28l-4.74-7.08c1.14-.32,2.18-.93,3.01-1.77h-.01Zm-6.08-.39h-1.91l.07-5.02h1.77c.94-.07,1.89.14,2.72.6.6.41.94,1.11.88,1.84,0,1.73-1.24,2.58-3.54,2.58h.01Z"/><path class="cls-1" d="m1703.4,105.62c-1.41-2.4-3.44-4.37-5.87-5.73-2.54-1.4-5.41-2.12-8.31-2.09-2.85-.02-5.65.7-8.14,2.09-2.42,1.37-4.44,3.34-5.87,5.73-1.41,2.4-2.14,5.14-2.12,7.93-.02,2.77.71,5.5,2.12,7.89,1.44,2.36,3.46,4.31,5.87,5.66,2.49,1.39,5.29,2.11,8.14,2.09,2.9.03,5.77-.69,8.31-2.09,2.42-1.34,4.44-3.29,5.87-5.66,1.44-2.38,2.19-5.11,2.16-7.89.02-2.79-.72-5.53-2.16-7.93Zm-3.01,14.54c-1.06,1.89-2.63,3.44-4.52,4.49v-.11c-2.03,1.15-4.32,1.75-6.65,1.77-2.26.02-4.49-.54-6.47-1.63-1.89-1.05-3.44-2.61-4.5-4.49-1.11-1.99-1.68-4.23-1.66-6.51-.02-2.29.55-4.55,1.66-6.55,1.06-1.9,2.61-3.47,4.5-4.56,1.97-1.1,4.21-1.66,6.47-1.63,2.32-.04,4.61.51,6.65,1.63,1.89,1.08,3.45,2.64,4.52,4.53,1.1,2,1.67,4.26,1.63,6.54.04,2.28-.52,4.52-1.63,6.51h0Z"/><path class="cls-1" d="m544.11,111.99h-45.64c-1.52,0-2.26-.74-2.26-2.16v-50.38c-.01-1.34-.58-2.62-1.56-3.54-1.01-1.01-2.39-1.56-3.82-1.52h-38.92c-1.43-.03-2.81.52-3.82,1.52-.98.92-1.54,2.2-1.56,3.54v50.52c.02.18.02.36,0,.53-.16,1.06-1.16,1.79-2.22,1.63h-25.51c-1.42-.03-2.79.5-3.82,1.49-.98.91-1.55,2.19-1.56,3.54v30.25c.01,1.34.57,2.62,1.56,3.54,1.03.98,2.4,1.52,3.82,1.49h25.51c.18-.03.36-.03.53,0,1.07.13,1.83,1.1,1.69,2.17v122.51c.31,21.53,6.27,36.17,17.9,43.9,11.63,7.74,29.24,11.6,52.82,11.6l23.28-.42c3.57-.57,5.38-2.44,5.38-5.59v-32.3c-.01-1.35-.59-2.64-1.59-3.54-1.01-.99-2.37-1.54-3.79-1.52h-13.44c-10.72,0-18.57-2.4-23.49-7.29-4.93-4.86-7.39-12.76-7.39-23.7v-103.66c0-1.42.74-2.16,2.26-2.16h45.64c1.42.03,2.79-.51,3.82-1.49,1.05-.99,1.61-2.38,1.56-3.82v-30.11c-.02-1.34-.58-2.62-1.56-3.54-1.03-.98-2.4-1.51-3.82-1.49h0Z"/><path class="cls-1" d="m652.05,108.52c-21.25-.6-42.16,5.51-59.75,17.44-16.42,11.46-28.37,28.27-33.79,47.55-3.97,13.11-5.79,26.78-5.38,40.47,0,27.55,3.43,49.07,10.29,64.56,7,17.54,19.49,32.34,35.59,42.2,16.27,10.02,36.04,15.04,59.29,15.04,17.63.25,35.11-3.28,51.26-10.33,14.65-6.28,27.39-16.31,36.93-29.08.27-.3.5-.64.68-1,1.12-2.24.21-4.96-2.03-6.07l-27.77-21.93c-.82-.84-1.94-1.31-3.11-1.31-1.84.03-3.53,1.01-4.49,2.58-11.03,15.65-29.19,24.71-48.33,24.13-27.83-.28-45.28-10.75-52.36-31.41-2.42-6.19-3.79-12.75-4.03-19.38-.02-.18-.02-.36,0-.53.17-1.06,1.16-1.79,2.22-1.63h140.1c3.57,0,5.38-1.63,5.38-5.17l.46-13.34c.06-8.06-.54-16.12-1.8-24.09-7.45-59.13-40.58-88.69-99.38-88.69h.02Zm46.13,94.28h-90.85c-1.77,0-2.37-.71-1.77-2.16.31-6.44,1.5-12.81,3.54-18.93,2.57-8.89,7.99-16.68,15.42-22.18,8.09-5.55,17.76-8.34,27.56-7.96,10.6-.4,21.04,2.62,29.79,8.6,7.99,5.9,13.62,14.46,15.88,24.13,1.46,5.34,2.36,10.82,2.69,16.34,0,1.45-.74,2.16-2.26,2.16h0Z"/><path class="cls-1" d="m882.57,108.48c-24.79,0-43.28,7.75-55.47,23.24-.32.88-.78,1.17-1.34.88-.63-.34-.99-1.02-.92-1.73v-13.73c-.02-1.34-.58-2.62-1.56-3.54-1.01-.98-2.38-1.51-3.79-1.49h-41.18c-1.42-.03-2.79.5-3.82,1.49-.98.91-1.55,2.19-1.56,3.54v209.61c0,1.35.56,2.63,1.56,3.54,1.01,1.01,2.39,1.55,3.82,1.52h41.07c1.42.03,2.78-.52,3.79-1.52.98-.92,1.55-2.19,1.56-3.54v-131.29c-.53-11.79,3.76-23.28,11.89-31.84,8.23-8.18,19.5-12.55,31.1-12.06,11.57-.49,22.81,3.97,30.88,12.27,7.97,8.71,12.17,20.22,11.67,32.02v130.9c0,1.35.56,2.63,1.56,3.54,1.01,1.01,2.39,1.57,3.82,1.52h41.25c1.43.03,2.81-.51,3.82-1.52.98-.92,1.55-2.19,1.56-3.54v-141.19c0-23.8-7.27-42.59-21.79-56.39-14.5-13.76-33.79-20.66-57.91-20.7h-.01Z"/><path class="cls-1" d="m1132.37,118c-15.76-6.61-32.73-9.84-49.81-9.48-25.92,0-47.48,5.6-64.67,16.8-17.19,11.2-26.97,25.54-29.33,43.02-.31,1.09.15,2.26,1.13,2.83,1.15.76,2.46,1.26,3.82,1.49l43.41,5.17c.26.07.53.12.8.15,2.74.28,5.19-1.72,5.46-4.46,1.9-7.01,6.7-12.88,13.2-16.13,8.55-4.21,18.01-6.2,27.52-5.8,13.73,0,24.02,3.09,30.89,9.27,7.1,6.73,10.88,16.26,10.29,26.04v10.33c0,1.42-.74,2.12-2.23,2.12h-47.9c-29.55.05-52.45,6.3-68.7,18.75s-24.38,29.88-24.38,52.29c-.02,21.53,7.2,37.75,21.69,48.64,14.48,10.9,32.92,16.34,55.3,16.34,27.85,0,49.08-7.75,63.68-23.24.45-.51,1.13-.76,1.8-.64.6.14.88.64.88,1.52v13.76c.01,1.34.57,2.62,1.56,3.54,1.02,1,2.4,1.55,3.82,1.52h41.18c1.42.03,2.79-.51,3.79-1.52,1-.9,1.58-2.19,1.59-3.54v-145.05c.18-13.47-3.89-26.66-11.64-37.68-8.43-11.57-19.91-20.59-33.15-26.04h0Zm-8.84,138.29c-.05,11.49-5.95,22.16-15.67,28.3-11,7.59-24.12,11.48-37.47,11.11-9.6.42-19.09-2.22-27.1-7.53-6.92-4.81-10.92-12.81-10.61-21.23-.31-10.07,4.93-19.51,13.65-24.55,9.1-5.73,21.56-8.6,37.36-8.6h37.6c1.49,0,2.23.71,2.23,2.16v20.34h.01Z"/><path class="cls-1" d="m1358.18,124.44c-14.48-10.61-32.76-15.92-54.84-15.92s-38.18,7.32-51.01,21.97c-.42.53-1.15.7-1.77.42-.63-.33-1-1.02-.92-1.73V35.78c-.02-1.34-.58-2.62-1.56-3.54-1.02-1-2.39-1.55-3.82-1.52h-41.18c-1.42-.03-2.79.52-3.79,1.52-.99.91-1.55,2.19-1.56,3.54v291.09c0,1.34.56,2.63,1.56,3.54,1.02.96,2.38,1.47,3.79,1.41h41.21c1.43.03,2.81-.52,3.82-1.52.98-.92,1.55-2.19,1.56-3.54v-13.34c-.08-.71.29-1.4.92-1.73.57-.28,1.17,0,1.77.85,12.83,14.92,31.69,23.3,51.37,22.82,21.18,0,39.08-5.31,53.7-15.92,14.99-11.08,26.13-26.58,31.84-44.33,5.99-17.3,8.87-35.51,8.53-53.81.1-17.79-2.52-35.5-7.79-52.5-5.9-17.66-17-33.12-31.84-44.36h.01Zm-24.45,147.24c-3.71,6.41-9.11,11.69-15.6,15.25-6.88,3.67-14.59,5.54-22.39,5.41-14.67.49-28.28-7.57-34.92-20.66-6.84-10.94-10.26-27.59-10.26-49.95s3.73-39.43,11.18-51.23c6.78-12.08,19.72-19.38,33.57-18.93,15.8-.02,27.74,6,35.8,18.08,8.94,12.64,13.41,30.14,13.41,52.5,0,20.97-3.6,37.48-10.79,49.53Z"/><path class="cls-1" d="m1464.21,31.04h-41.18c-1.42-.02-2.78.53-3.79,1.52-1,.9-1.58,2.19-1.59,3.54v291.12c.02,1.35.6,2.63,1.59,3.54,1.04.93,2.4,1.41,3.79,1.34h41.18c1.42.02,2.79-.51,3.82-1.49.98-.92,1.54-2.2,1.56-3.54V36.1c-.01-1.34-.58-2.62-1.56-3.54-1.03-.99-2.4-1.53-3.82-1.52Z"/><path class="cls-1" d="m1588.46,108.2c-21.23-.54-42.1,5.61-59.65,17.58-16.44,11.45-28.39,28.26-33.79,47.55-3.93,13.07-5.73,26.69-5.31,40.33,0,27.55,3.43,49.07,10.29,64.56,6.95,17.58,19.41,32.44,35.52,42.35,16.25,10.05,36.01,15.07,59.29,15.07,17.63.25,35.11-3.27,51.26-10.33,14.67-6.34,27.4-16.43,36.94-29.26.27-.3.5-.64.68-1,1.11-2.24.21-4.96-2.03-6.07l-27.77-21.93c-.81-.85-1.94-1.32-3.11-1.31-1.84.02-3.55,1-4.49,2.58-11.05,15.62-29.2,24.67-48.32,24.09-27.84-.28-45.29-10.75-52.36-31.41-2.43-6.18-3.79-12.72-4.03-19.35,0-1.45.74-2.16,2.23-2.16h140.1c3.57,0,5.37-1.63,5.37-5.17l.42-13.34c.02-8.08-.6-16.15-1.87-24.13-7.45-59.11-40.58-88.66-99.38-88.66h.01Zm46.27,94.21h-90.85c-1.79,0-2.4-.71-1.81-2.12.33-6.45,1.51-12.83,3.54-18.96,2.56-8.88,7.99-16.66,15.42-22.15,8.06-5.5,17.67-8.28,27.42-7.93,10.65-.44,21.16,2.56,29.96,8.56,8,5.88,13.63,14.42,15.88,24.09,1.46,5.35,2.36,10.84,2.69,16.38,0,1.41-.78,2.12-2.26,2.12h.01Z"/><path class="cls-1" d="m334.78,53.76c-3.77-11.14-13.22-19.4-24.76-21.65L148.59.59c-11.32-2.17-22.95,1.75-30.64,10.33L8.28,133.72c-7.8,8.78-10.32,21.06-6.58,32.19l51.76,153.68c3.76,11.14,13.22,19.41,24.76,21.65l161.53,31.52c2.04.39,4.11.59,6.19.6,9.33,0,18.22-3.98,24.45-10.93l109.67-122.8c7.76-8.8,10.23-21.08,6.47-32.2l-51.76-153.68h.01Zm-26.99-10.51c7.54,1.46,13.73,6.84,16.2,14.12l34.03,101.07-72.35-114.13c-1.54-2.43-3.43-4.61-5.62-6.47,0,0,27.74,5.41,27.74,5.41Zm14.15,79.28l29.72,47.26c3.38,5.35,3.65,12.09.71,17.69l-30.14,57.24v-117.63c.03-1.53-.06-3.05-.28-4.56h-.01Zm-45.99-72.14l.11.14,35.63,56.07c-.67-.5-1.36-.96-2.09-1.38l-102.81-59.5c-.47-.29-.95-.55-1.45-.78l54.8-2.79c6.37-.3,12.41,2.85,15.81,8.24h0Zm35.02,76.7l-.14,119.29c-.08,4.97-2.77,9.54-7.08,12.03l-102.67,59.36c-4.32,2.45-9.61,2.45-13.94,0l-102.81-59.54c-4.31-2.49-6.99-7.05-7.08-12.03v-119.11c.08-4.97,2.77-9.54,7.08-12.03l102.81-59.5c4.31-2.5,9.63-2.5,13.94,0l102.81,59.5c4.31,2.49,7,7.06,7.08,12.03h0ZM126.37,18.48c4.05-4.53,9.84-7.1,15.92-7.08,1.35,0,2.7.14,4.03.39l100.86,19.64-130.19,6.58c-3.55.21-7.04,1.05-10.29,2.48,0,0,19.67-22.01,19.67-22.01Zm-8.81,31.03l63.08-3.18-101.99,58.9c-.17.07-.32.17-.46.28l24.41-46.63c3-5.53,8.68-9.09,14.96-9.37h0ZM22.54,192.12l-10.05-29.86c-2.46-7.25-.83-15.27,4.28-20.98h-.07L89.22,60.12l-63.43,120.46c-1.87,3.58-2.98,7.51-3.25,11.53h0Zm43.9,58.69l-29.86-47.09c-3.38-5.34-3.65-12.09-.71-17.69l30.14-57.28v117.49c0,1.53.14,3.06.42,4.56h0Zm13.94,79.24c-7.51-1.47-13.66-6.84-16.13-14.08l-34.03-101.07,72.38,114.09c1.54,2.43,3.43,4.62,5.62,6.47l-27.84-5.41Zm31.77-7.11l-35.63-56.21c.68.5,1.39.96,2.12,1.38l102.81,59.51c.46.29.95.55,1.45.78l-54.8,2.8c-6.42.36-12.53-2.8-15.95-8.24v-.02Zm149.72,31.95c-5.02,5.6-12.6,8.16-19.99,6.76l-100.83-19.71,130.19-6.58c3.55-.21,7.04-1.04,10.3-2.48l-19.67,22.01h0Zm8.81-30.92l-63.08,3.19,101.99-59.05.46-.28-24.55,46.63c-2.9,5.58-8.54,9.21-14.82,9.52h0Zm100.79-91.91l-72.49,81.37,63.43-120.49c1.88-3.58,3-7.5,3.29-11.53l10.05,29.86c2.4,7.2.76,15.13-4.28,20.8h0Z"/></g><path class="cls-1" d="m1837.14,325.34c-10.6-5.5-18.85-13.3-24.75-23.4s-8.85-21.75-8.85-34.95v-82.5c0-13,2.95-24.5,8.85-34.5s14.15-17.75,24.75-23.25,22.9-8.25,36.9-8.25,26.3,2.7,36.9,8.1c10.6,5.4,18.85,13,24.75,22.8s8.85,21.1,8.85,33.9c0,1-.3,1.8-.9,2.4s-1.3.9-2.1.9l-15.3.9c-2,0-3-.9-3-2.7v-.9c0-14.2-4.5-25.55-13.5-34.05s-20.9-12.75-35.7-12.75-26.7,4.3-35.7,12.9c-9,8.6-13.5,19.9-13.5,33.9v84c0,14,4.5,25.3,13.5,33.9s20.9,12.9,35.7,12.9,26.7-4.25,35.7-12.75,13.5-19.85,13.5-34.05v-.6c0-1.8,1-2.7,3-2.7l15.3.9c2,0,3,.9,3,2.7,0,13-2.95,24.45-8.85,34.35s-14.15,17.55-24.75,22.95c-10.6,5.4-22.9,8.1-36.9,8.1s-26.3-2.75-36.9-8.25Z"/><path class="cls-1" d="m1967.55,327.89V123.89c0-2,1-3,3-3h15.3c2,0,3,1,3,3v204c0,2-1,3-3,3h-15.3c-2,0-3-1-3-3h0Z"/><path class="cls-1" d="m2039.16,322.19c-10.4-7.4-17.6-17.6-21.6-30.6-2.8-9.2-4.2-21.5-4.2-36.9s1.4-27.6,4.2-36.6c3.8-12.8,10.9-22.9,21.3-30.3,10.4-7.4,23-11.1,37.8-11.1s26.45,3.7,36.75,11.1c10.3,7.4,17.35,17.4,21.15,30,2.8,8.6,4.2,20.9,4.2,36.9s-1.4,28.5-4.2,36.9c-3.8,13-10.85,23.2-21.15,30.6-10.3,7.4-22.65,11.1-37.05,11.1s-26.8-3.7-37.2-11.1Zm61.8-15.45c6.8-5.3,11.4-12.45,13.8-21.45,1.8-7.2,2.7-17.3,2.7-30.3s-.8-23.3-2.4-30.3c-2.4-9-7.05-16.15-13.95-21.45s-15.25-7.95-25.05-7.95-18.1,2.65-24.9,7.95c-6.8,5.3-11.4,12.45-13.8,21.45-1.6,7-2.4,17.1-2.4,30.3s.8,23.3,2.4,30.3c2.2,9,6.75,16.15,13.65,21.45,6.9,5.3,15.35,7.95,25.35,7.95s17.8-2.65,24.6-7.95h0Z"/><path class="cls-1" d="m2258.73,179.09h15.3c2,0,3,1,3,3v145.8c0,2-1,3-3,3h-15.3c-2,0-3-1-3-3v-12.9c0-.4-.2-.7-.6-.9-.4-.2-.7-.1-.9.3-8.4,12.4-21.7,18.6-39.9,18.6-9.6,0-18.45-1.95-26.55-5.85s-14.5-9.55-19.2-16.95c-4.7-7.4-7.05-16.3-7.05-26.7v-101.4c0-2,1-3,3-3h15.3c2,0,3,1,3,3v95.1c0,11.4,3.2,20.45,9.6,27.15,6.4,6.7,15.1,10.05,26.1,10.05s20.45-3.4,27.15-10.2c6.7-6.8,10.05-15.8,10.05-27v-95.1c0-2,1-3,3-3h0Z"/><path class="cls-1" d="m2403.9,120.89h15.3c2,0,3,1,3,3v204c0,2-1,3-3,3h-15.3c-2,0-3-1-3-3v-12.6c0-.4-.15-.65-.45-.75s-.65.05-1.05.45c-4.4,5.8-9.85,10.3-16.35,13.5s-13.75,4.8-21.75,4.8c-14,0-25.75-3.6-35.25-10.8-9.5-7.2-16.05-17-19.65-29.4-2.8-9-4.2-21.7-4.2-38.1s1.2-29,3.6-37.2c3.6-12.8,10.2-22.85,19.8-30.15,9.6-7.3,21.5-10.95,35.7-10.95,7.8,0,15,1.55,21.6,4.65,6.6,3.1,12.1,7.55,16.5,13.35.4.4.75.55,1.05.45s.45-.35.45-.75v-70.5c0-2,1-3,3-3h0Zm-4.5,156.6c.8-5.4,1.2-12.9,1.2-22.5s-.4-17.15-1.2-22.65-2.2-10.35-4.2-14.55c-2.4-6.8-6.35-12.25-11.85-16.35s-12.05-6.15-19.65-6.15c-8,0-14.9,2-20.7,6s-10,9.3-12.6,15.9c-2.4,4.4-4.15,9.35-5.25,14.85s-1.65,13.15-1.65,22.95.4,16.75,1.2,22.05,2.2,10.05,4.2,14.25c2.4,7.2,6.65,12.9,12.75,17.1s13.35,6.3,21.75,6.3,14.7-2.1,20.1-6.3c5.4-4.2,9.4-9.8,12-16.8,1.8-4,3.1-8.7,3.9-14.1Z"/><path class="cls-1" d="m2517.75,317.99c-13.1-10.2-19.65-23.8-19.65-40.8v-9.3c0-2,1-3,3-3h14.7c2,0,3,1,3,3v8.1c0,11.6,4.8,20.95,14.4,28.05,9.6,7.1,22.9,10.65,39.9,10.65,15.4,0,27.1-3.25,35.1-9.75s12-15.15,12-25.95c0-7-1.85-13-5.55-18s-9.4-9.7-17.1-14.1c-7.7-4.4-18.55-9.5-32.55-15.3-15-6-26.65-11.25-34.95-15.75s-15-10.3-20.1-17.4c-5.1-7.1-7.65-16.05-7.65-26.85,0-16.8,5.85-29.85,17.55-39.15,11.7-9.3,27.75-13.95,48.15-13.95,22.2,0,39.7,5.2,52.5,15.6,12.8,10.4,19.2,24.2,19.2,41.4v6.6c0,2-1,3-3,3h-15c-2,0-3-1-3-3v-5.4c0-11.6-4.55-21.1-13.65-28.5-9.1-7.4-21.75-11.1-37.95-11.1-14.2,0-25.1,2.9-32.7,8.7-7.6,5.8-11.4,14.2-11.4,25.2,0,7.2,1.85,13.15,5.55,17.85,3.7,4.7,9,8.8,15.9,12.3s17.55,8.05,31.95,13.65c14.6,6,26.35,11.6,35.25,16.8s16.1,11.55,21.6,19.05,8.25,16.65,8.25,27.45c0,16.8-6.2,30.2-18.6,40.2-12.4,10-29.6,15-51.6,15s-40.45-5.1-53.55-15.3h0Z"/><path class="cls-1" d="m2782.76,250.49v9.6c0,2-1,3-3,3h-96.9c-.8,0-1.2.4-1.2,1.2.4,11,1,18.1,1.8,21.3,2.2,9,6.9,16.1,14.1,21.3,7.2,5.2,16.4,7.8,27.6,7.8,8.4,0,15.8-1.9,22.2-5.7,6.4-3.8,11.4-9.2,15-16.2,1.2-1.8,2.6-2.2,4.2-1.2l11.7,6.9c1.6,1,2,2.4,1.2,4.2-5,9.6-12.5,17.15-22.5,22.65s-21.5,8.25-34.5,8.25c-14.2-.2-26.1-3.6-35.7-10.2-9.6-6.6-16.5-15.8-20.7-27.6-3.6-9.6-5.4-23.4-5.4-41.4,0-8.4.15-15.25.45-20.55s1.05-10.05,2.25-14.25c3.4-13,10.25-23.4,20.55-31.2s22.75-11.7,37.35-11.7c18.2,0,32.2,4.6,42,13.8s15.9,22.2,18.3,39c.8,5.6,1.2,12.6,1.2,21h0Zm-85.95-47.55c-6.5,5.1-10.75,11.95-12.75,20.55-1.2,4.2-2,11-2.4,20.4,0,.8.4,1.2,1.2,1.2h77.7c.8,0,1.2-.4,1.2-1.2-.4-9-1-15.4-1.8-19.2-2.2-9-6.65-16.15-13.35-21.45-6.7-5.3-15.15-7.95-25.35-7.95s-17.95,2.55-24.45,7.65h0Z"/><path class="cls-1" d="m2826.83,322.04c-10.3-7.5-17.35-17.65-21.15-30.45-2.6-8.8-3.9-21.2-3.9-37.2,0-14.4,1.3-26.6,3.9-36.6,3.6-12.4,10.6-22.35,21-29.85s22.8-11.25,37.2-11.25,27.25,3.7,37.95,11.1c10.7,7.4,17.65,16.6,20.85,27.6,1,3.6,1.6,6.6,1.8,9v.6c0,1.4-.9,2.3-2.7,2.7l-15,2.1h-.6c-1.4,0-2.3-.9-2.7-2.7l-.9-4.5c-1.8-7.6-6.2-14.05-13.2-19.35s-15.5-7.95-25.5-7.95-18.35,2.65-25.05,7.95-11.05,12.35-13.05,21.15c-1.8,7.6-2.7,17.7-2.7,30.3s.9,23.4,2.7,30.6c2,9,6.35,16.15,13.05,21.45,6.7,5.3,15.05,7.95,25.05,7.95s18.25-2.55,25.35-7.65,11.55-11.65,13.35-19.65v-1.2l.3-1.2c.2-2,1.4-2.8,3.6-2.4l14.7,2.4c2,.4,2.9,1.5,2.7,3.3l-1.2,6c-3,11.6-9.9,21-20.7,28.2s-23.5,10.8-38.1,10.8-26.75-3.75-37.05-11.25h0Z"/><path class="cls-1" d="m3039.89,179.09h15.3c2,0,3,1,3,3v145.8c0,2-1,3-3,3h-15.3c-2,0-3-1-3-3v-12.9c0-.4-.2-.7-.6-.9-.4-.2-.7-.1-.9.3-8.4,12.4-21.7,18.6-39.9,18.6-9.6,0-18.45-1.95-26.55-5.85s-14.5-9.55-19.2-16.95c-4.7-7.4-7.05-16.3-7.05-26.7v-101.4c0-2,1-3,3-3h15.3c2,0,3,1,3,3v95.1c0,11.4,3.2,20.45,9.6,27.15,6.4,6.7,15.1,10.05,26.1,10.05s20.45-3.4,27.15-10.2c6.7-6.8,10.05-15.8,10.05-27v-95.1c0-2,1-3,3-3h0Z"/><path class="cls-1" d="m3166.07,181.49c1.6.8,2.2,2.1,1.8,3.9l-3.3,14.7c-.6,2-1.9,2.6-3.9,1.8-3.4-1.4-7.3-2.1-11.7-2.1l-3.9.3c-10.4.4-19,4.25-25.8,11.55s-10.2,16.55-10.2,27.75v88.5c0,2-1,3-3,3h-15.3c-2,0-3-1-3-3v-145.8c0-2,1-3,3-3h15.3c2,0,3,1,3,3v18.3c0,.6.15.95.45,1.05s.55-.05.75-.45c4.2-7.4,9.55-13.15,16.05-17.25s14.05-6.15,22.65-6.15c6.6,0,12.3,1.3,17.1,3.9h0Z"/><path class="cls-1" d="m3183.89,146.69c-3.2-3.2-4.8-7.2-4.8-12s1.6-9.05,4.8-12.15c3.2-3.1,7.2-4.65,12-4.65s8.8,1.55,12,4.65c3.2,3.1,4.8,7.15,4.8,12.15s-1.6,8.8-4.8,12-7.2,4.8-12,4.8-8.8-1.6-12-4.8Zm.6,180.9v-145.8c0-2,1-3,3-3h15.3c2,0,3,1,3,3v145.8c0,2-1,3-3,3h-15.3c-2,0-3-1-3-3Z"/><path class="cls-1" d="m3303.79,196.79h-33.9c-.8,0-1.2.4-1.2,1.2v88.5c0,9.6,2.15,16.35,6.45,20.25s11.05,5.85,20.25,5.85h7.5c2,0,3,1,3,3v12.3c0,2-1,3-3,3-2.4.2-6.1.3-11.1.3-14.4,0-25.3-2.7-32.7-8.1s-11.1-15.4-11.1-30v-95.1c0-.8-.4-1.2-1.2-1.2h-18.3c-2,0-3-1-3-3v-11.7c0-2,1-3,3-3h18.3c.8,0,1.2-.4,1.2-1.2v-34.8c0-2,1-3,3-3h14.7c2,0,3,1,3,3v34.8c0,.8.4,1.2,1.2,1.2h33.9c2,0,3,1,3,3v11.7c0,2-1,3-3,3h0Z"/><path class="cls-1" d="m3327.34,387.89v-12c0-2,1-3,3-3h1.2c7.8-.2,13.85-1.35,18.15-3.45,4.3-2.1,8-6,11.1-11.7s6.45-14.35,10.05-25.95c.4-.8.4-1.4,0-1.8l-50.7-147.6-.3-1.2c0-1.4.9-2.1,2.7-2.1h15.9c1.8,0,3,.8,3.6,2.4l39,121.2c.2.4.5.6.9.6s.7-.2.9-.6l38.4-121.2c.6-1.6,1.8-2.4,3.6-2.4h15.6c2.2,0,3,1.1,2.4,3.3l-55.5,161.7c-4.8,13.4-9.3,23.3-13.5,29.7-4.2,6.4-9.45,10.85-15.75,13.35s-15.15,3.75-26.55,3.75h-2.1c-1.4,0-2.1-1-2.1-3h0Z"/></svg>