<svg width="90" height="27" viewBox="0 0 90 27" fill="none" xmlns="http://www.w3.org/2000/svg">
<path d="M3.21127 13.6557L10.2691 20.7153L8.71383 22.2689L0 13.555L13.555 0L22.2689 8.71383L20.7153 10.2691L13.6557 3.21127L9.15994 7.70532L18.4136 16.9607L16.8601 18.5143L7.60464 9.26062L3.21127 13.6557Z" fill="#501693"/>
<path d="M23.257 16.5255C23.467 17.35 23.4323 18.1971 23.1563 19.0476C22.8699 19.9242 22.3283 20.7644 21.5472 21.5455C20.7661 22.3266 19.9242 22.8682 19.0494 23.1546C18.2006 23.4323 17.35 23.4653 16.5238 23.2518C16.1262 23.1494 15.7357 22.9879 15.3642 22.7727L14.4685 22.2537L13.3593 26.8258L11.3059 24.7724L11.9377 22.4273L12.5557 20.2176L6.55145 14.2186L8.10674 12.6633L15.5465 20.103C15.937 20.4936 16.3918 20.7453 16.8987 20.8511C17.4021 20.9553 17.9211 20.9067 18.4401 20.7105C18.9175 20.5283 19.3774 20.2262 19.8097 19.8114C20.2297 19.3913 20.5352 18.9348 20.7192 18.4522C20.9171 17.9332 20.964 17.4142 20.8598 16.9108C20.754 16.404 20.4988 15.9457 20.1013 15.5482L12.6615 8.10673L14.2168 6.55143L21.8788 14.2134C22.58 14.9164 23.0435 15.694 23.257 16.5255Z" fill="#8905C6"/>
<path d="M81.1091 5.73251H78.9792V7.86237H81.1091V5.73251Z" fill="#37474F"/>
<path d="M87.4275 20.0374C86.4294 20.0374 85.7056 19.9281 85.2543 19.7111C84.8047 19.4924 84.5026 19.088 84.3482 18.4978C84.1937 17.9076 84.1156 16.9581 84.1156 15.651C84.1156 14.3995 84.1919 13.4778 84.3482 12.8876C84.5026 12.2974 84.8012 11.886 85.2439 11.6534C85.6865 11.4208 86.393 11.3063 87.3633 11.3063C88.1791 11.3063 89.0227 11.3844 89.8941 11.5389V10.3793C89.5435 10.3099 89.1026 10.2491 88.5766 10.2005C88.0489 10.1519 87.5455 10.1259 87.0682 10.1259C85.8878 10.1259 84.9939 10.2977 84.3898 10.6432C83.7858 10.9886 83.3744 11.5475 83.1557 12.32C82.9369 13.0942 82.8293 14.212 82.8293 15.6736C82.8293 17.1369 82.9213 18.2426 83.1036 18.996C83.2858 19.7476 83.6799 20.3065 84.2839 20.6728C84.888 21.039 85.8444 21.2213 87.1532 21.2213C87.6445 21.2213 88.1583 21.197 88.6929 21.1466C89.2276 21.098 89.6632 21.0303 90 20.947V19.8083C89.1286 19.9611 88.2711 20.0374 87.4275 20.0374Z" fill="#37474F"/>
<path d="M40.1818 12.445H40.0759L39.9909 10.2943H38.873V21.0512H40.1592V15.9669C40.1592 14.9133 40.2617 14.0662 40.4648 13.4257C40.6678 12.7852 41.0341 12.3044 41.5618 11.9815C42.0895 11.6586 42.8446 11.4972 43.8288 11.4972V10.1259C42.8446 10.1259 42.0496 10.2943 41.4455 10.6328C40.8432 10.9678 40.4214 11.5736 40.1818 12.445Z" fill="#37474F"/>
<path d="M35.3945 10.631C34.8043 10.2942 33.8548 10.1241 32.5477 10.1241C31.0844 10.1241 30.0273 10.2994 29.3729 10.6518C28.7185 11.0024 28.3002 11.5457 28.1179 12.2765C27.9356 13.0073 27.8436 14.146 27.8436 15.6926C27.8436 17.2392 27.9495 18.3849 28.1596 19.1296C28.3696 19.876 28.8053 20.4089 29.4666 20.7317C30.128 21.0546 31.1608 21.2178 32.5668 21.2178C33.2559 21.2178 33.9485 21.1934 34.6446 21.1431C35.3407 21.0945 35.8996 21.0199 36.3214 20.9209V19.7822C35.8423 19.8534 35.273 19.9124 34.6133 19.961C33.952 20.0096 33.3549 20.0339 32.8202 20.0339C31.6677 20.0339 30.8414 19.9315 30.3415 19.7284C29.8416 19.5253 29.5152 19.166 29.3608 18.6522C29.2063 18.1384 29.1282 17.3 29.1282 16.1318H36.7432V15.6683C36.7432 14.1078 36.6651 12.9622 36.5106 12.2297C36.3579 11.5024 35.9847 10.9677 35.3945 10.631ZM35.5004 15.1024H29.1299C29.1438 13.9499 29.2219 13.1201 29.3625 12.6133C29.5031 12.1064 29.7982 11.7627 30.2478 11.5805C30.6973 11.3982 31.442 11.3062 32.4835 11.3062C33.3271 11.3062 33.952 11.3843 34.3599 11.5388C34.7678 11.6933 35.0595 12.0127 35.2348 12.4987C35.4101 12.983 35.4986 13.7537 35.4986 14.8091V15.1024H35.5004Z" fill="#37474F"/>
<path d="M59.0796 10.5461C58.5867 10.2648 57.8559 10.1242 56.8856 10.1242C55.8736 10.1242 55.1029 10.2822 54.5769 10.5981C54.0492 10.914 53.6882 11.3549 53.4903 11.9156H53.3636C53.1813 11.282 52.8463 10.8255 52.362 10.5443C51.8777 10.2631 51.1417 10.1225 50.1575 10.1225C49.1455 10.1225 48.3852 10.2805 47.8801 10.5964C47.3733 10.9123 47.0226 11.3532 46.8247 11.9139H46.7188L46.6564 10.2892H45.5177V21.046H46.8039V15.4827C46.8039 14.4846 46.856 13.7105 46.9619 13.1619C47.0677 12.6134 47.3281 12.1743 47.743 11.8444C48.1578 11.5146 48.8088 11.348 49.694 11.348C50.4821 11.348 51.048 11.4261 51.3917 11.5806C51.7354 11.7351 51.9714 12.0406 52.0982 12.4989C52.2249 12.9554 52.2874 13.7052 52.2874 14.745V21.0513H53.5736V15.4827C53.5736 14.4274 53.6222 13.6306 53.7212 13.089C53.8201 12.5475 54.0718 12.1222 54.4797 11.8132C54.8876 11.5042 55.542 11.3497 56.4412 11.3497C57.2293 11.3497 57.7951 11.4278 58.1388 11.5823C58.4825 11.7368 58.7186 12.0423 58.8453 12.5006C58.972 12.9571 59.0345 13.707 59.0345 14.7467V21.053H60.3242V14.3006C60.3242 13.247 60.2392 12.4277 60.0708 11.8444C59.9024 11.2612 59.5726 10.829 59.0796 10.5461Z" fill="#37474F"/>
<path d="M70.0049 10.6309C69.4147 10.2942 68.4652 10.1241 67.1581 10.1241C65.6948 10.1241 64.6377 10.2994 63.9833 10.6517C63.3289 11.0024 62.9105 11.5457 62.7283 12.2765C62.546 13.0073 62.454 14.146 62.454 15.6926C62.454 17.2392 62.5599 18.3848 62.7699 19.1295C62.98 19.8759 63.4174 20.4088 64.077 20.7317C64.7384 21.0545 65.7712 21.2177 67.1772 21.2177C67.8663 21.2177 68.5589 21.1934 69.255 21.1431C69.951 21.0945 70.51 21.0198 70.9318 20.9209V19.7822C70.4544 19.8533 69.8833 19.9124 69.2237 19.961C68.5624 20.0096 67.9653 20.0339 67.4306 20.0339C66.278 20.0339 65.4518 19.9315 64.9519 19.7284C64.452 19.5253 64.1256 19.166 63.9711 18.6522C63.8166 18.1384 63.7385 17.3 63.7385 16.1317H71.3519V15.6683C71.3519 14.1078 71.2738 12.9621 71.1193 12.2296C70.9682 11.5023 70.5968 10.9677 70.0049 10.6309ZM70.1107 15.1024H63.7403C63.7542 13.9498 63.8323 13.1201 63.9729 12.6132C64.1135 12.1064 64.4086 11.7627 64.8581 11.5804C65.3077 11.3982 66.0524 11.3062 67.0939 11.3062C67.9375 11.3062 68.5624 11.3843 68.9703 11.5388C69.3782 11.6932 69.6698 12.0126 69.8452 12.4987C70.0205 12.983 70.109 13.7537 70.109 14.809V15.1024H70.1107Z" fill="#37474F"/>
<path d="M80.6768 10.2942H79.3906V21.0511H80.6768V10.2942Z" fill="#37474F"/>
<path d="M75.5318 7.17147H74.2456V10.2942H72.0307V11.4746H74.2456V21.0511H75.5318V11.4746H78.1269V10.2942H75.5318V7.17147Z" fill="#37474F"/>
</svg>
